<svg xmlns="http://www.w3.org/2000/svg" width="680" height="420" viewBox="0 0 680 420" fill="none">
  <rect width="680" height="420" rx="26" fill="#FFFFFF"/>
  <rect x="20" y="20" width="640" height="380" rx="20" fill="#F3FAF2" stroke="#D8EBD8"/>

  <rect x="46" y="52" width="188" height="120" rx="14" fill="#FFFFFF" stroke="#D8EBD8"/>
  <circle cx="88" cy="98" r="20" fill="#8ACB68"/>
  <rect x="116" y="86" width="92" height="10" rx="5" fill="#6AAA50"/>
  <rect x="116" y="104" width="74" height="8" rx="4" fill="#A7CF9D"/>
  <rect x="64" y="132" width="140" height="18" rx="9" fill="#EAF6E8"/>

  <rect x="252" y="52" width="382" height="120" rx="14" fill="#FFFFFF" stroke="#D8EBD8"/>
  <path d="M286 136C320 96 344 124 373 98C395 78 430 84 458 117C486 150 521 154 552 132C576 116 600 120 620 138" stroke="#4EA84E" stroke-width="8" stroke-linecap="round"/>
  <circle cx="620" cy="138" r="8" fill="#4EA84E"/>

  <rect x="46" y="190" width="588" height="184" rx="14" fill="#FFFFFF" stroke="#D8EBD8"/>
  <rect x="72" y="220" width="190" height="16" rx="8" fill="#3F8F3F"/>
  <rect x="72" y="248" width="244" height="12" rx="6" fill="#B2D8A8"/>

  <rect x="72" y="284" width="530" height="20" rx="10" fill="#F4FAF3"/>
  <rect x="72" y="284" width="382" height="20" rx="10" fill="#83C965"/>

  <rect x="72" y="322" width="530" height="20" rx="10" fill="#F4FAF3"/>
  <rect x="72" y="322" width="290" height="20" rx="10" fill="#4EA84E"/>
</svg>
